<svg xmlns="http://www.w3.org/2000/svg" viewBox="0 0 291.74 35"><defs><style>.cls-1{fill:#0b5398;}</style></defs><g id="レイヤー_2" data-name="レイヤー 2"><g id="header"><path class="cls-1" d="M73.16,13.4c0-.83.68-1,1.43-1h5.35C78.13,5.87,64.58,2.11,57.88,2.11c-6.4,0-7.9,4.74-7.9,6.17a12.12,12.12,0,0,0,.3,2.63h-3a6.7,6.7,0,0,1-.35-2.56c0-3.23,4.79-7.22,4.79-7.22S48.4,0,40,0C28,0,26.45,6.55,26.45,8.13a11,11,0,0,0,.35,2.78H22.66a5.52,5.52,0,0,1-.31-1.73c0-2.86,2.49-6.47,3.47-7.37C16,2.48,1.51,6.7,1.51,11.82c0,1.8,1.27,3,2.86,4.66A19.65,19.65,0,0,1,7.83,22.7H0C5,31.09,17.54,34,28.08,34c-3.32-2.86-5.5-8.09-5.5-11.25h-12A17,17,0,0,0,8.2,18c-1.58-2.33-4.36-4.59-4.36-6.25,0-3.46,12.79-6.7,18.51-7.6-1.2,1.05-2.18,4.06-2,6.4.14,2.18,2,4.29,3.62,6s5.26,5,5.26,6v.19H25.44c0,4.53,4.44,12.3,13.17,12.3H54.12c-4.89-2.78-8.06-9.14-8.06-12.3h-8c-.66-1.81-3.9-5.38-5.65-7.27-2-2.11-3.84-4.44-3.84-7C28.6,4.74,33,1.81,40,1.81a28.12,28.12,0,0,1,7.68.9s-2.87,1.81-2.87,6.92c0,2,1.36,4.82,2.94,7.23,1.26,1.92,3.94,4.35,5.1,5.84H49.38c0,4.53,5.64,12,12,12C69.17,34.7,80,28.6,80,24,80,19.19,73.16,14.23,73.16,13.4ZM32,18.14c1.86,2.24,2.75,3.6,3,4.56H32.37a5.54,5.54,0,0,0-1.21-2c-.45-.45-2.93-2.79-5.27-4.89s-2.41-3.32-2.41-3.32h3.77C27.77,13.47,29.73,15.43,32,18.14Zm18.59-1.05a43.39,43.39,0,0,1-2.78-4.52H51s1,1.66,2.19,3.31,3.92,5,5.33,6.82H55.86C54.66,21.2,51.71,18.63,50.58,17.09ZM71.51,22.7H62.16c-2.55-2.39-9.92-11-9.92-14.19,0-2.26,2.71-4.37,5.94-4.37,6.4,0,12.72,2.94,12.72,3.76A3.89,3.89,0,0,0,69.25,11c0,2.48,2.86,5,4.14,6.62s4.36,4.52,4.36,5.95a3.23,3.23,0,0,1-2.63,3.24C73.31,26.8,71.51,24.81,71.51,22.7ZM22.9,31.32a43.92,43.92,0,0,1-10.14-2.11,23.64,23.64,0,0,1-7.59-4.12H20.45A20.82,20.82,0,0,0,22.9,31.32Zm15.71,1.29a10.8,10.8,0,0,1-10.32-7.52H44a20.44,20.44,0,0,0,3.86,7.52Zm22.73-.3c-3.77,0-7.59-3.89-9-7.22H69.59A6.83,6.83,0,0,0,73,28.7l-.52.3A24.3,24.3,0,0,1,61.34,32.31ZM73.76,8.58c1.13,0,2.86,2.41,2.86,2.41H71.88C71.88,9.63,72.63,8.58,73.76,8.58Z"/><polygon class="cls-1" points="96.81 22.46 99 22.46 99 20.38 96.81 20.38 96.81 17.79 93.86 17.79 93.86 20.38 90.94 20.38 90.94 22.46 93.86 22.46 93.86 23.65 90.9 25.92 90.9 29.55 93.86 26.85 93.86 31.16 96.81 31.16 96.81 26.05 99.03 27.2 99.03 24.51 96.81 23.36 96.81 22.46"/><polygon class="cls-1" points="136.54 26.9 140.64 26.9 139.51 28.92 136.39 28.95 136.39 31.03 151.38 30.47 151.85 31.03 155.54 31.03 153.12 28.14 149.43 28.14 150.01 28.83 143.22 28.89 144.34 26.9 155.8 26.9 155.8 24.81 136.54 24.81 136.54 26.9"/><polygon class="cls-1" points="113.95 25.79 117.04 25.79 117.04 28.73 113.48 28.95 113.48 31.03 124.49 30.36 124.49 28.27 120.73 28.5 120.73 25.79 124.49 25.79 124.49 23.7 113.95 23.7 113.95 25.79"/><polygon class="cls-1" points="111.66 25.55 111.66 23.47 107.3 23.47 107.3 21.45 110.99 21.45 110.99 19.37 107.3 19.37 107.3 17.79 104.34 17.79 104.34 19.37 103.54 19.37 103.6 18.6 101.33 18.66 99.84 20.48 99.84 23.03 102.93 21.34 102.93 21.45 104.34 21.45 104.34 23.47 99.84 23.47 99.84 25.55 103.62 25.55 99.17 28.07 99.17 31.23 104.34 28.14 104.34 31.16 107.3 31.16 107.3 27.88 112.47 31.23 112.47 28.07 108.35 25.55 111.66 25.55"/><polygon class="cls-1" points="228.25 19.07 233.55 19.07 233.55 16.11 220.05 16.11 220.05 19.07 225.29 19.07 225.29 28.21 218.5 28.21 218.5 31.16 234.9 31.16 234.9 28.21 228.25 28.21 228.25 19.07"/><polygon class="cls-1" points="269.94 24.34 270.04 24.34 270.04 21.39 267.31 21.39 262.67 21.39 263.42 18.46 271.55 18.46 271.55 15.51 256.63 15.51 256.63 18.46 260.47 18.46 259.14 24.34 261.04 24.34 261.91 24.34 267.19 24.34 267.02 28.81 255.86 28.81 255.86 31.77 272.26 31.77 272.26 28.81 269.78 28.81 269.94 24.34"/><polygon class="cls-1" points="209.63 17.86 200.76 15.57 200.76 18.53 209.63 20.82 209.63 17.86"/><path class="cls-1" d="M194.92,15.44h-3V18.5h-4.84V15.44h-3V18.5h-3.4v2.95h3.4v3.6h3v-3.6H192v3.6c0,2.08-1.28,3.16-2.55,3.16h-5.92v2.95h7c2.28,0,4.43-3.22,4.43-6.11v-3.6h3.46V18.5h-3.46Z"/><polygon class="cls-1" points="174.36 23.97 177.65 23.97 177.65 21.89 174.36 21.89 174.36 17.72 170.86 17.72 170.86 21.89 167.77 21.89 167.77 23.97 170.86 23.97 170.86 29.08 166.29 29.08 166.29 31.16 178.12 31.16 178.12 29.08 174.36 29.08 174.36 23.97"/><polygon class="cls-1" points="133.44 19.11 132.14 17.79 129.18 17.79 130.48 19.11 133.44 19.11"/><path class="cls-1" d="M167.77,27.67V25.18l-3.16-1.4c1.38-1.12,2.35-2,2.35-2V19.71h-2.88v-2h-3v2h-3v2.08h4.77c-.51,1.06-4,3.16-5.51,3.59v3.16a15.53,15.53,0,0,0,3.76-2.1v4.72h3V26.07Z"/><path class="cls-1" d="M127.93,17.79h-3.36a18,18,0,0,0,.21,2.22H113.41v2.08h11.73a22.58,22.58,0,0,0,1.44,4.62c1.21,2.66,2.8,4.39,3.54,4.39H134V29H132a13,13,0,0,1-3.52-6.86H134V20H128.1A18.35,18.35,0,0,1,127.93,17.79Z"/><path class="cls-1" d="M147.28,17.86h-3c-1.47,1.21-6.92,2.89-8.53,2.89v2.42a17.67,17.67,0,0,0,3.59-.83v1.4h13.55V22.33a17.35,17.35,0,0,0,3.62.84V20.75c-1.61,0-7-1.68-8.53-2.89Zm-5.88,3.79A12,12,0,0,0,144.93,20h2.35a11.92,11.92,0,0,0,3.52,1.64Z"/><path class="cls-1" d="M213.33,23.77c0,2.08-1.35,4.44-4.91,4.44h-7.79v2.95h8.87a7.09,7.09,0,0,0,6.78-7.39V17h-2.95Z"/><path class="cls-1" d="M251.53,15.51H238v3h9.21c-.37,2.62-3.53,10.35-8.44,10.35h-2.28v3h3c3.31,0,5.9-2.54,7.83-5.67L250,31.77h4l-5.16-8.54A45.54,45.54,0,0,0,251.53,15.51Z"/><path class="cls-1" d="M291.74,18.33V17h-1.47V15.44h-2.16V17h-1.67V14.77h-2.16V17H282V14.77h-2.15V17h-1.68V15.44H276V17h-1.48v1.35h3.76V20h-3.42v1.34h6.65V22.9h-6.18v1.34h6.18v.94h-6.92v2.15h4.26A5.45,5.45,0,0,1,274.61,29v2.82c2.82,0,5.63-1.9,6.92-3v3h3v-3.3c1.07,1,4.16,3.3,7.25,3.3V29a5.45,5.45,0,0,1-4.26-1.62h4.11V25.18h-7.1v-.94h6.45V22.9h-6.45V21.35h6.78V20H288V18.33ZM285,20h-3.76V18.33H285Z"/></g></g></svg>