<svg xmlns="http://www.w3.org/2000/svg" width="451.676" height="53"><path d="M110.787 20.288c0-1.253 1.026-1.481 2.166-1.481h8.092c-2.735-9.916-23.251-15.615-33.4-15.615-9.688 0-11.967 7.18-11.967 9.346a18.388 18.388 0 00.456 3.989h-4.555a10.25 10.25 0 01-.525-3.875c0-4.9 7.249-10.942 7.249-10.942S73.288 0 60.523 0C42.4 0 40.052 9.916 40.052 12.31a16.894 16.894 0 00.524 4.217h-6.268a8.676 8.676 0 01-.456-2.621c0-4.332 3.761-9.8 5.243-11.17C24.163 3.762 2.28 10.144 2.28 17.899c0 2.735 1.937 4.559 4.331 7.067a29.571 29.571 0 015.249 9.414H0c7.637 12.7 26.557 17.029 42.514 17.029-5.015-4.332-8.32-12.242-8.32-17.029H16.013a26.17 26.17 0 00-3.589-7.135c-2.394-3.533-6.611-6.953-6.611-9.46 0-5.243 19.376-10.144 28.039-11.512-1.824 1.6-3.306 6.155-3.078 9.688.213 3.3 2.964 6.5 5.471 9.119s7.979 7.522 7.979 9v.3h-5.7c0 6.853 6.724 18.624 19.946 18.624h23.48c-7.409-4.217-12.2-13.837-12.2-18.624H57.673c-1-2.738-5.895-8.152-8.548-11.01-2.964-3.192-5.813-6.725-5.813-10.6 0-5.585 6.611-10.03 17.211-10.03a42.309 42.309 0 0111.625 1.359s-4.331 2.74-4.331 10.49c0 3.078 2.052 7.295 4.445 10.942 1.9 2.9 5.969 6.594 7.726 8.845H74.77c0 6.853 8.548 18.168 18.122 18.168 11.854 0 28.267-9.232 28.267-16.185 0-7.294-10.372-14.817-10.372-16.071zm-62.346 7.181c2.824 3.39 4.169 5.455 4.552 6.907h-3.982a8.292 8.292 0 00-1.824-3.032c-.684-.684-4.445-4.217-7.978-7.408s-3.648-5.015-3.648-5.015h5.7c.797 1.478 3.761 4.445 7.18 8.548zm28.153-1.6a66.083 66.083 0 01-4.218-6.838h4.9s1.482 2.507 3.306 5.015c1.657 2.278 5.94 7.651 8.079 10.326h-4.075c-1.813-2.265-6.286-6.161-7.992-8.499zm31.686 8.5H94.133C90.261 30.754 79.1 17.782 79.1 12.88c0-3.42 4.1-6.611 9-6.611 9.689 0 19.263 4.445 19.263 5.7a5.858 5.858 0 00-2.508 4.673c0 3.761 4.331 7.637 6.269 10.03s6.611 6.839 6.611 9c0 2.849-2.394 4.9-3.989 4.9-2.731.005-5.466-3.005-5.466-6.196zM34.672 47.424a65.832 65.832 0 01-15.347-3.19 35.847 35.847 0 01-11.5-6.24h23.148a31.383 31.383 0 003.699 9.43zm23.8 1.958c-9.08 0-13.934-6.455-15.626-11.388h23.772a30.826 30.826 0 005.844 11.388zm34.421-.456c-5.715 0-11.5-5.894-13.643-10.932h26.129a10.283 10.283 0 005.092 5.459q-.383.229-.788.461c-5.435 3.091-11.869 5.012-16.791 5.012zM111.7 12.994c1.71 0 4.331 3.647 4.331 3.647h-7.181c-.001-2.052 1.139-3.647 2.85-3.647z" fill="#0d57a2"/><path d="M142.083 26.22h3.468v-3.309h-3.468v-4.112h-4.7v4.109h-4.642v3.308h4.642v1.893l-4.7 3.607v5.763l4.7-4.287v6.849h4.7v-8.12l3.522 1.824v-4.27l-3.522-1.824zm63.092 7.043h6.519l-1.808 3.214-4.946.041v3.308l23.8-.893.748.893h5.87l-3.842-4.589h-5.87l.921 1.1-10.782.09 1.78-3.165h18.2v-3.307h-30.59zM169.3 31.499h4.909v4.671l-5.656.345v3.308l17.487-1.067v-3.305l-5.961.364v-4.316h5.961v-3.305H169.3zm-3.632-.37V27.82h-6.937v-3.2h5.87v-3.309h-5.87v-2.512h-4.7v2.508h-1.273l.1-1.227-3.613.107-2.363 2.881v4.055l4.909-2.686v.178h2.241v3.2h-7.15v3.314h6.018l-7.08 4v5.016l8.217-4.913v4.806h4.7v-5.209l8.217 5.317v-5.015l-6.542-4zM350.826 20.83h8.431v-4.7h-21.45v4.7h8.324v14.514h-10.779v4.7h26.04v-4.7h-10.566zm66.217 8.378h.163v-4.7H405.5l1.193-4.642h12.915v-4.7h-23.693v4.7H402l-2.113 9.338h12.8l-.279 7.1h-17.72v4.7h26.04v-4.7H416.8zm-95.778-10.299l-14.087-3.628v4.7l14.087 3.628zm-23.371-3.842h-4.7v4.856h-7.684v-4.856h-4.7v4.856h-5.39v4.7h5.39v5.709h4.7v-5.713h7.69v5.709c0 3.309-2.028 5.016-4.055 5.016h-9.392v4.7h11.108c3.62 0 7.035-5.123 7.035-9.712v-5.713h5.5v-4.7h-5.5zm-32.656 13.554h5.229v-3.308h-5.229v-6.614h-5.549v6.617h-4.909v3.308h4.909v8.111h-7.257v3.308h18.783v-3.312h-5.976zm-64.993-7.722l-2.063-2.1h-4.7l2.063 2.1z" fill="#0b5398"/><path d="M254.779 34.49v-3.948l-5.013-2.228a123.749 123.749 0 003.732-3.162v-3.308h-4.589v-3.145h-4.7v3.148h-4.8v3.308h7.581c-.806 1.679-6.286 5.019-8.754 5.71v5.016a24.809 24.809 0 005.976-3.333v7.495h4.7v-8.09zm-63.285-15.691h-5.336a30.9 30.9 0 00.336 3.521h-18.051v3.309h18.629a35.946 35.946 0 002.288 7.328c1.921 4.233 4.447 6.972 5.621 6.972h6.225v-3.411H197.9a20.484 20.484 0 01-5.58-10.885h8.888v-3.309h-9.441a30.152 30.152 0 01-.273-3.525zm30.736.11h-4.8c-2.351 1.921-10.995 4.59-13.556 4.59v3.842a28.12 28.12 0 005.709-1.311v2.218H231.1v-2.23a28.357 28.357 0 005.751 1.323v-3.842c-2.561 0-11.205-2.668-13.553-4.589zm-9.33 6.03c2.687-.952 5.04-1.971 5.591-2.615h3.736c.551.644 2.9 1.663 5.591 2.615zm114.235 3.36c0 3.308-2.135 7.043-7.791 7.043h-12.379v4.7h14.1c5.541 0 10.77-4.8 10.77-11.739V17.522h-4.695zM387.8 15.174h-21.446v4.7h14.631c-.6 4.162-5.613 16.435-13.412 16.435h-3.62v4.69h4.7c5.266 0 9.373-4.025 12.435-9.005l4.312 9.005h6.3l-8.192-13.552a71.518 71.518 0 004.292-12.273zm63.876 4.482v-2.134h-2.348v-2.455h-3.415v2.455h-2.668v-3.523h-3.415v3.522h-3.63v-3.522h-3.415v3.522h-2.668v-2.454H426.7v2.455h-2.348v2.134h5.976v2.668h-5.438v2.135h10.565v2.454h-9.818v2.135h9.818v1.494h-10.992v3.415h6.774c-1.447 1.864-4.306 2.561-6.774 2.561v4.481c4.475 0 8.942-3.011 10.992-4.757v4.757h4.7v-5.228c1.707 1.6 6.616 5.229 11.525 5.229v-4.482c-2.467 0-5.327-.7-6.774-2.561h6.532v-3.415h-11.287v-1.494H450.4v-2.135h-10.249v-2.454h10.778v-2.135H445.7v-2.668zM441 22.324h-5.976v-2.668H441z" fill="#0b5398"/></svg>