<svg xmlns="http://www.w3.org/2000/svg" viewBox="0 0 428.33 35"><defs><style>.cls-1{fill:#0b5398}</style></defs><g id="レイヤー_2" data-name="レイヤー 2"><g id="header"><path class="cls-1" d="M73.16 13.4c0-.83.68-1 1.43-1h5.35C78.13 5.87 64.58 2.11 57.88 2.11c-6.4 0-7.9 4.74-7.9 6.17a12.12 12.12 0 00.3 2.63h-3a6.7 6.7 0 01-.35-2.56c0-3.23 4.79-7.22 4.79-7.22S48.4 0 40 0C28 0 26.45 6.55 26.45 8.13a11 11 0 00.35 2.78h-4.14a5.52 5.52 0 01-.31-1.73c0-2.86 2.49-6.47 3.47-7.37C16 2.48 1.51 6.7 1.51 11.82c0 1.8 1.27 3 2.86 4.66a19.65 19.65 0 013.46 6.22H0C5 31.09 17.54 34 28.08 34c-3.32-2.86-5.5-8.09-5.5-11.25h-12A17 17 0 008.2 18c-1.58-2.33-4.36-4.59-4.36-6.25 0-3.46 12.79-6.7 18.51-7.6-1.2 1.05-2.18 4.06-2 6.4.14 2.18 2 4.29 3.62 6s5.26 5 5.26 6v.19h-3.79c0 4.53 4.44 12.3 13.17 12.3h15.51c-4.89-2.78-8.06-9.14-8.06-12.3h-8c-.66-1.81-3.9-5.38-5.65-7.27-2-2.11-3.84-4.44-3.84-7C28.6 4.74 33 1.81 40 1.81a28.12 28.12 0 017.68.9s-2.87 1.81-2.87 6.92c0 2 1.36 4.82 2.94 7.23 1.26 1.92 3.94 4.35 5.1 5.84h-3.47c0 4.53 5.64 12 12 12C69.17 34.7 80 28.6 80 24c0-4.81-6.84-9.77-6.84-10.6zM32 18.14c1.86 2.24 2.75 3.6 3 4.56h-2.63a5.54 5.54 0 00-1.21-2c-.45-.45-2.93-2.79-5.27-4.89s-2.41-3.32-2.41-3.32h3.77c.52.98 2.48 2.94 4.75 5.65zm18.59-1.05a43.39 43.39 0 01-2.78-4.52H51s1 1.66 2.19 3.31 3.92 5 5.33 6.82h-2.66c-1.2-1.5-4.15-4.07-5.28-5.61zm20.92 5.61h-9.35c-2.55-2.39-9.92-11-9.92-14.19 0-2.26 2.71-4.37 5.94-4.37 6.4 0 12.72 2.94 12.72 3.76a3.89 3.89 0 00-1.65 3.1c0 2.48 2.86 5 4.14 6.62s4.36 4.52 4.36 5.95a3.23 3.23 0 01-2.63 3.24c-1.81-.01-3.61-2-3.61-4.11zM22.9 31.32a43.92 43.92 0 01-10.14-2.11 23.64 23.64 0 01-7.59-4.12h15.28a20.82 20.82 0 002.45 6.23zm15.71 1.29a10.8 10.8 0 01-10.32-7.52H44a20.44 20.44 0 003.86 7.52zm22.73-.3c-3.77 0-7.59-3.89-9-7.22h17.25A6.83 6.83 0 0073 28.7l-.52.3a24.3 24.3 0 01-11.14 3.31zM73.76 8.58c1.13 0 2.86 2.41 2.86 2.41h-4.74c0-1.36.75-2.41 1.88-2.41zm29.69 8.02h3.64v-3.47h-3.64V8.82h-4.93v4.31h-4.87v3.47h4.87v1.98l-4.92 3.79v6.05l4.92-4.5v7.18h4.93v-8.52l3.7 1.92v-4.48l-3.7-1.92v-1.5zm66.21 7.39h6.84l-1.9 3.37-5.19.05v3.47l24.98-.94.78.94h6.16l-4.03-4.81h-6.16l.97 1.15-11.32.09 1.87-3.32h19.1v-3.47h-32.1v3.47zm-37.65-1.85h5.15v4.91l-5.94.36v3.47l18.36-1.12v-3.47l-6.26.38v-4.53h6.26v-3.47h-17.57v3.47zm-3.81-.39v-3.47h-7.28v-3.36h6.16v-3.47h-6.16V8.82H116v2.63h-1.34l.1-1.29-3.79.11-2.48 3.03v4.25l5.15-2.82v.19H116v3.36h-7.51v3.47h6.31l-7.43 4.2v5.27l8.63-5.16v5.04h4.92v-5.46l8.62 5.58v-5.27l-6.86-4.2h5.52zm194.3-10.8h8.85V6.02h-22.51v4.93h8.74v15.23h-11.32v4.92h27.33v-4.92H322.5V10.95zm69.49 8.79h.17v-4.93h-12.28l1.25-4.87h13.55V5.01h-24.86v4.93h6.39l-2.22 9.8h13.43l-.29 7.44h-18.6v4.93h27.33v-4.93h-4.13l.26-7.44zM291.48 8.93L276.7 5.12v4.93l14.78 3.81V8.93zM267 4.9h-5V10h-8V4.9h-5V10h-5.66v4.93H249v6h5v-6h8v6c0 3.47-2.13 5.27-4.26 5.27h-9.85v4.9h11.65c3.8 0 7.39-5.37 7.39-10.19v-6h5.76V10H267zm-34.31 14.22h5.49v-3.47h-5.49V8.71h-5.83v6.94h-5.15v3.47h5.15v8.51h-7.61v3.47h19.71v-3.47h-6.27v-8.51zm-68.2-8.1l-2.17-2.2h-4.93l2.17 2.2h4.93z"/><path class="cls-1" d="M221.71 25.28v-4.14l-5.26-2.34a135 135 0 003.92-3.32V12h-4.82V8.71h-4.92V12h-5v3.47h7.95c-.84 1.76-6.6 5.27-9.19 6v5.27a26 26 0 006.28-3.5v7.86h4.92v-8.49zM155.3 8.82h-5.6a31.75 31.75 0 00.36 3.69h-18.95V16h19.55a38.11 38.11 0 002.4 7.69c2 4.44 4.67 7.31 5.9 7.31h6.53v-3.59H162a22.35 22.35 0 01-3.58-4.85 21.86 21.86 0 01-2.25-6.56h9.32v-3.49h-9.9a30.52 30.52 0 01-.29-3.69zm32.26.11h-5c-2.47 2-11.54 4.82-14.23 4.82v4a29.45 29.45 0 006-1.38v2.33h22.57v-2.31a30 30 0 006 1.39v-4c-2.69 0-11.76-2.8-14.22-4.82zm-9.79 6.33c2.82-1 5.29-2.07 5.87-2.75h3.92c.57.68 3 1.75 5.86 2.75zm119.87 3.53c0 3.47-2.24 7.39-8.17 7.39h-13v4.92h14.79c5.81 0 11.3-5 11.3-12.31V7.47h-4.93zM361.31 5H338.8v4.94h15.35c-.63 4.37-5.89 17.24-14.07 17.24h-3.8v4.93h4.93c5.52 0 9.83-4.22 13-9.45l4.54 9.45h6.61l-8.6-14.22A76 76 0 00361.31 5zm67.02 4.71V7.47h-2.46V4.9h-3.58v2.57h-2.8V3.78h-3.59v3.69h-3.81V3.78h-3.58v3.69h-2.8V4.9h-3.58v2.57h-2.47v2.24h6.28v2.8h-5.72v2.24h11.09v2.58H401v2.24h10.3v1.57h-11.52v3.58h7.1c-1.51 2-4.51 2.69-7.1 2.69v4.7c4.69 0 9.38-3.16 11.53-5v5h4.93v-5.49c1.79 1.68 6.94 5.49 12.09 5.49v-4.7c-2.59 0-5.59-.73-7.11-2.69h6.86v-3.58h-11.84v-1.57H427v-2.24h-10.76v-2.58h11.31v-2.24h-5.49v-2.8zm-11.2 2.8h-6.27v-2.8h6.27z"/></g></g></svg>