<svg xmlns="http://www.w3.org/2000/svg" viewBox="0 0 428.33 35"><defs><style>.cls-1{fill:#0b5398;}</style></defs><g id="レイヤー_2" data-name="レイヤー 2"><g id="header"><path class="cls-1" d="M73.16,13.4c0-.83.68-1,1.43-1h5.35C78.13,5.87,64.58,2.11,57.88,2.11c-6.4,0-7.9,4.74-7.9,6.17a12.12,12.12,0,0,0,.3,2.63h-3a6.7,6.7,0,0,1-.35-2.56c0-3.23,4.79-7.22,4.79-7.22S48.4,0,40,0C28,0,26.45,6.55,26.45,8.13a11,11,0,0,0,.35,2.78H22.66a5.52,5.52,0,0,1-.31-1.73c0-2.86,2.49-6.47,3.47-7.37C16,2.48,1.51,6.7,1.51,11.82c0,1.8,1.27,3,2.86,4.66A19.65,19.65,0,0,1,7.83,22.7H0C5,31.09,17.54,34,28.08,34c-3.32-2.86-5.5-8.09-5.5-11.25h-12A17,17,0,0,0,8.2,18c-1.58-2.33-4.36-4.59-4.36-6.25,0-3.46,12.79-6.7,18.51-7.6-1.2,1.05-2.18,4.06-2,6.4.14,2.18,2,4.29,3.62,6s5.26,5,5.26,6v.19H25.44c0,4.53,4.44,12.3,13.17,12.3H54.12c-4.89-2.78-8.06-9.14-8.06-12.3h-8c-.66-1.81-3.9-5.38-5.65-7.27-2-2.11-3.84-4.44-3.84-7C28.6,4.74,33,1.81,40,1.81a28.12,28.12,0,0,1,7.68.9s-2.87,1.81-2.87,6.92c0,2,1.36,4.82,2.94,7.23,1.26,1.92,3.94,4.35,5.1,5.84H49.38c0,4.53,5.64,12,12,12C69.17,34.7,80,28.6,80,24,80,19.19,73.16,14.23,73.16,13.4ZM32,18.14c1.86,2.24,2.75,3.6,3,4.56H32.37a5.54,5.54,0,0,0-1.21-2c-.45-.45-2.93-2.79-5.27-4.89s-2.41-3.32-2.41-3.32h3.77C27.77,13.47,29.73,15.43,32,18.14Zm18.59-1.05a43.39,43.39,0,0,1-2.78-4.52H51s1,1.66,2.19,3.31,3.92,5,5.33,6.82H55.86C54.66,21.2,51.71,18.63,50.58,17.09ZM71.51,22.7H62.16c-2.55-2.39-9.92-11-9.92-14.19,0-2.26,2.71-4.37,5.94-4.37,6.4,0,12.72,2.94,12.72,3.76A3.89,3.89,0,0,0,69.25,11c0,2.48,2.86,5,4.14,6.62s4.36,4.52,4.36,5.95a3.23,3.23,0,0,1-2.63,3.24C73.31,26.8,71.51,24.81,71.51,22.7ZM22.9,31.32a43.92,43.92,0,0,1-10.14-2.11,23.64,23.64,0,0,1-7.59-4.12H20.45A20.82,20.82,0,0,0,22.9,31.32Zm15.71,1.29a10.8,10.8,0,0,1-10.32-7.52H44a20.44,20.44,0,0,0,3.86,7.52Zm22.73-.3c-3.77,0-7.59-3.89-9-7.22H69.59A6.83,6.83,0,0,0,73,28.7l-.52.3A24.3,24.3,0,0,1,61.34,32.31ZM73.76,8.58c1.13,0,2.86,2.41,2.86,2.41H71.88C71.88,9.63,72.63,8.58,73.76,8.58Z"/><polygon class="cls-1" points="103.45 16.6 107.09 16.6 107.09 13.13 103.45 13.13 103.45 8.82 98.52 8.82 98.52 13.13 93.65 13.13 93.65 16.6 98.52 16.6 98.52 18.58 93.6 22.37 93.6 28.42 98.52 23.92 98.52 31.1 103.45 31.1 103.45 22.58 107.15 24.5 107.15 20.02 103.45 18.1 103.45 16.6"/><polygon class="cls-1" points="169.66 23.99 176.5 23.99 174.6 27.36 169.41 27.41 169.41 30.88 194.39 29.94 195.17 30.88 201.33 30.88 197.3 26.07 191.14 26.07 192.11 27.22 180.79 27.31 182.66 23.99 201.76 23.99 201.76 20.52 169.66 20.52 169.66 23.99"/><polygon class="cls-1" points="132.01 22.14 137.16 22.14 137.16 27.05 131.22 27.41 131.22 30.88 149.58 29.76 149.58 26.29 143.32 26.67 143.32 22.14 149.58 22.14 149.58 18.67 132.01 18.67 132.01 22.14"/><polygon class="cls-1" points="128.2 21.75 128.2 18.28 120.92 18.28 120.92 14.92 127.08 14.92 127.08 11.45 120.92 11.45 120.92 8.82 116 8.82 116 11.45 114.66 11.45 114.76 10.16 110.97 10.27 108.49 13.3 108.49 17.55 113.64 14.73 113.64 14.92 116 14.92 116 18.28 108.49 18.28 108.49 21.75 114.8 21.75 107.37 25.95 107.37 31.22 116 26.06 116 31.1 120.92 31.1 120.92 25.64 129.54 31.22 129.54 25.95 122.68 21.75 128.2 21.75"/><polygon class="cls-1" points="322.5 10.95 331.35 10.95 331.35 6.02 308.84 6.02 308.84 10.95 317.58 10.95 317.58 26.18 306.26 26.18 306.26 31.1 333.59 31.1 333.59 26.18 322.5 26.18 322.5 10.95"/><polygon class="cls-1" points="391.99 19.74 392.16 19.74 392.16 14.81 387.61 14.81 379.88 14.81 381.13 9.94 394.68 9.94 394.68 5.01 369.82 5.01 369.82 9.94 376.21 9.94 373.99 19.74 377.15 19.74 378.61 19.74 387.42 19.74 387.13 27.18 368.53 27.18 368.53 32.11 395.86 32.11 395.86 27.18 391.73 27.18 391.99 19.74"/><polygon class="cls-1" points="291.48 8.93 276.7 5.12 276.7 10.05 291.48 13.86 291.48 8.93"/><path class="cls-1" d="M267,4.9H262V10H254V4.9H249V10h-5.66v4.93H249v6H254v-6H262v6c0,3.47-2.13,5.27-4.26,5.27h-9.85V31.1h11.65c3.8,0,7.39-5.37,7.39-10.19v-6h5.76V10H267Z"/><polygon class="cls-1" points="232.69 19.12 238.18 19.12 238.18 15.65 232.69 15.65 232.69 8.71 226.86 8.71 226.86 15.65 221.71 15.65 221.71 19.12 226.86 19.12 226.86 27.63 219.25 27.63 219.25 31.1 238.96 31.1 238.96 27.63 232.69 27.63 232.69 19.12"/><polygon class="cls-1" points="164.49 11.02 162.32 8.82 157.39 8.82 159.56 11.02 164.49 11.02"/><path class="cls-1" d="M221.71,25.28V21.14l-5.26-2.34c2.29-1.87,3.92-3.32,3.92-3.32V12h-4.82V8.71h-4.92V12h-5v3.47h7.95c-.84,1.76-6.6,5.27-9.19,6v5.27a26,26,0,0,0,6.28-3.5V31.1h4.92V22.61Z"/><path class="cls-1" d="M155.3,8.82h-5.6a31.75,31.75,0,0,0,.36,3.69H131.11V16h19.55a38.11,38.11,0,0,0,2.4,7.69c2,4.44,4.67,7.31,5.9,7.31h6.53V27.41H162a22.35,22.35,0,0,1-3.58-4.85A21.86,21.86,0,0,1,156.17,16h9.32V12.51h-9.9A30.52,30.52,0,0,1,155.3,8.82Z"/><path class="cls-1" d="M187.56,8.93h-5c-2.47,2-11.54,4.82-14.23,4.82v4a29.45,29.45,0,0,0,6-1.38v2.33h22.57V16.39a30,30,0,0,0,6,1.39v-4c-2.69,0-11.76-2.8-14.22-4.82Zm-9.79,6.33c2.82-1,5.29-2.07,5.87-2.75h3.92c.57.68,3,1.75,5.86,2.75Z"/><path class="cls-1" d="M297.64,18.79c0,3.47-2.24,7.39-8.17,7.39h-13V31.1h14.79c5.81,0,11.3-5,11.3-12.31V7.47h-4.93Z"/><path class="cls-1" d="M361.31,5H338.8V9.94h15.35c-.63,4.37-5.89,17.24-14.07,17.24h-3.8v4.93h4.93c5.52,0,9.83-4.22,13-9.45l4.54,9.45h6.61l-8.6-14.22A76,76,0,0,0,361.31,5Z"/><path class="cls-1" d="M428.33,9.71V7.47h-2.46V4.9h-3.58V7.47h-2.8V3.78H415.9V7.47h-3.81V3.78h-3.58V7.47h-2.8V4.9h-3.58V7.47h-2.47V9.71h6.28v2.8h-5.72v2.24h11.09v2.58H401v2.24h10.3v1.57H399.78v3.58h7.1c-1.51,2-4.51,2.69-7.1,2.69v4.7c4.69,0,9.38-3.16,11.53-5v5h4.93V26.62c1.79,1.68,6.94,5.49,12.09,5.49v-4.7c-2.59,0-5.59-.73-7.11-2.69h6.86V21.14H416.24V19.57H427V17.33H416.24V14.75h11.31V12.51h-5.49V9.71Zm-11.2,2.8h-6.27V9.71h6.27Z"/></g></g></svg>