<svg xmlns="http://www.w3.org/2000/svg" width="451.676" height="53" viewBox="0 0 451.676 53"><g transform="translate(-20 -27.501)"><path d="M130.787,47.789c0-1.253,1.026-1.481,2.166-1.481h8.092c-2.735-9.916-23.251-15.615-33.4-15.615-9.688,0-11.967,7.18-11.967,9.346a18.388,18.388,0,0,0,.456,3.989H91.579a10.25,10.25,0,0,1-.525-3.875c0-4.9,7.249-10.942,7.249-10.942s-5.015-1.71-17.78-1.71c-18.123,0-20.471,9.916-20.471,12.31a16.894,16.894,0,0,0,.524,4.217H54.308a8.676,8.676,0,0,1-.456-2.621c0-4.332,3.761-9.8,5.243-11.17C44.163,31.263,22.28,37.645,22.28,45.4c0,2.735,1.937,4.559,4.331,7.067a29.571,29.571,0,0,1,5.249,9.414H20c7.637,12.7,26.557,17.029,42.514,17.029-5.015-4.332-8.32-12.242-8.32-17.029H36.013a26.17,26.17,0,0,0-3.589-7.135c-2.394-3.533-6.611-6.953-6.611-9.46,0-5.243,19.376-10.144,28.039-11.512-1.824,1.6-3.306,6.155-3.078,9.688.213,3.3,2.964,6.5,5.471,9.119s7.979,7.522,7.979,9v.3h-5.7c0,6.853,6.724,18.624,19.946,18.624h23.48c-7.409-4.217-12.2-13.837-12.2-18.624H77.673c-1-2.738-5.895-8.152-8.548-11.01-2.964-3.192-5.813-6.725-5.813-10.6,0-5.585,6.611-10.03,17.211-10.03A42.309,42.309,0,0,1,92.148,31.6S87.817,34.34,87.817,42.09c0,3.078,2.052,7.295,4.445,10.942,1.9,2.9,5.969,6.594,7.726,8.845H94.77c0,6.853,8.548,18.168,18.122,18.168,11.854,0,28.267-9.232,28.267-16.185C141.159,56.566,130.787,49.043,130.787,47.789ZM68.441,54.97c2.824,3.39,4.169,5.455,4.552,6.907H69.011a8.292,8.292,0,0,0-1.824-3.032c-.684-.684-4.445-4.217-7.978-7.408s-3.648-5.015-3.648-5.015h5.7C62.058,47.9,65.022,50.867,68.441,54.97Zm28.153-1.6a66.083,66.083,0,0,1-4.218-6.838h4.9s1.482,2.507,3.306,5.015c1.657,2.278,5.94,7.651,8.079,10.326h-4.075C102.773,59.608,98.3,55.712,96.594,53.374Zm31.686,8.5H114.133C110.261,58.255,99.1,45.283,99.1,40.381c0-3.42,4.1-6.611,9-6.611,9.689,0,19.263,4.445,19.263,5.7a5.858,5.858,0,0,0-2.508,4.673c0,3.761,4.331,7.637,6.269,10.03s6.611,6.839,6.611,9c0,2.849-2.394,4.9-3.989,4.9C131.015,68.078,128.28,65.068,128.28,61.877ZM54.672,74.925a65.832,65.832,0,0,1-15.347-3.19,35.847,35.847,0,0,1-11.5-6.24H50.973A31.383,31.383,0,0,0,54.672,74.925Zm23.8,1.958c-9.08,0-13.934-6.455-15.626-11.388H86.618a30.826,30.826,0,0,0,5.844,11.388Zm34.421-.456c-5.715,0-11.5-5.894-13.643-10.932h26.129a10.283,10.283,0,0,0,5.092,5.459q-.383.229-.788.461C124.248,74.506,117.814,76.427,112.892,76.427ZM131.7,40.495c1.71,0,4.331,3.647,4.331,3.647h-7.181C128.849,42.09,129.989,40.495,131.7,40.495Z" fill="#0d57a2"/><path d="M162.083,53.721h3.468V50.412h-3.468V46.3h-4.7v4.109h-4.642v3.308h4.642V55.61l-4.7,3.607V64.98l4.7-4.287v6.849h4.7v-8.12l3.522,1.824V56.976l-3.522-1.824Z" fill="#0b5398"/><path d="M225.175,60.764h6.519l-1.808,3.214-4.946.041v3.308l23.8-.893.748.893h5.87l-3.842-4.589h-5.87l.921,1.1-10.782.09,1.78-3.165h18.2V57.456H225.175Z" fill="#0b5398"/><path d="M189.3,59h4.909v4.671l-5.656.345v3.308l17.487-1.067V62.952l-5.961.364V59h5.961V55.695H189.3Z" fill="#0b5398"/><path d="M185.668,58.63V55.321h-6.937v-3.2h5.87V48.812h-5.87V46.3h-4.7v2.508h-1.273l.1-1.227-3.613.107-2.363,2.881v4.055l4.909-2.686v.178h2.241v3.2h-7.15V58.63H172.9l-7.08,4v5.016l8.217-4.913v4.806h4.7V62.33l8.217,5.317V62.632l-6.542-4Z" fill="#0b5398"/><path d="M370.826,48.331h8.431v-4.7H357.807v4.7h8.324V62.845H355.352v4.7h26.04v-4.7H370.826Z" fill="#0b5398"/><path d="M437.043,56.709h.163v-4.7H425.5l1.193-4.642h12.915v-4.7H415.915v4.7H422l-2.113,9.338h12.8l-.279,7.1H414.688v4.7h26.04v-4.7H436.8Z" fill="#0b5398"/><path d="M341.265,46.41l-14.087-3.628v4.7l14.087,3.628Z" fill="#0b5398"/><path d="M317.894,42.568h-4.7v4.856h-7.684V42.568h-4.7v4.856h-5.39v4.7h5.39v5.709h4.7V52.12H313.2v5.709c0,3.309-2.028,5.016-4.055,5.016h-9.392v4.7h11.108c3.62,0,7.035-5.123,7.035-9.712V52.12h5.5v-4.7h-5.5Z" fill="#0b5398"/><path d="M285.238,56.122h5.229V52.814h-5.229V46.2h-5.549v6.617h-4.909v3.308h4.909v8.111h-7.257v3.308h18.783V64.232h-5.976Z" fill="#0b5398"/><path d="M220.245,48.4l-2.063-2.1h-4.7l2.063,2.1Z" fill="#0b5398"/><path d="M274.779,61.991V58.043l-5.013-2.228c2.182-1.78,3.732-3.162,3.732-3.162V49.345h-4.589V46.2h-4.7v3.148h-4.8v3.308h7.581c-.806,1.679-6.286,5.019-8.754,5.71v5.016a24.809,24.809,0,0,0,5.976-3.333v7.495h4.7v-8.09Z" fill="#0b5398"/><path d="M211.494,46.3h-5.336a30.9,30.9,0,0,0,.336,3.521H188.443v3.309h18.629a35.946,35.946,0,0,0,2.288,7.328c1.921,4.233,4.447,6.972,5.621,6.972h6.225V64.019H217.9a20.484,20.484,0,0,1-5.58-10.885h8.888V49.825h-9.441A30.152,30.152,0,0,1,211.494,46.3Z" fill="#0b5398"/><path d="M242.23,46.41h-4.8C235.079,48.331,226.435,51,223.874,51v3.842a28.12,28.12,0,0,0,5.709-1.311v2.218H251.1v-2.23a28.357,28.357,0,0,0,5.751,1.323V51c-2.561,0-11.205-2.668-13.553-4.589ZM232.9,52.44c2.687-.952,5.04-1.971,5.591-2.615h3.736c.551.644,2.9,1.663,5.591,2.615Z" fill="#0b5398"/><path d="M347.135,55.8c0,3.308-2.135,7.043-7.791,7.043H326.965v4.7h14.1c5.541,0,10.77-4.8,10.77-11.739V45.023h-4.695Z" fill="#0b5398"/><path d="M407.8,42.675H386.354v4.7h14.631c-.6,4.162-5.613,16.435-13.412,16.435h-3.62V68.5h4.7c5.266,0,9.373-4.025,12.435-9.005L405.4,68.5h6.3l-8.192-13.552A71.518,71.518,0,0,0,407.8,42.675Z" fill="#0b5398"/><path d="M471.676,47.157V45.023h-2.348V42.568h-3.415v2.455h-2.668V41.5H459.83v3.522H456.2V41.5h-3.415v3.522h-2.668V42.568H446.7v2.455h-2.348v2.134h5.976v2.668H444.89V51.96h10.565v2.454h-9.818v2.135h9.818v1.494H444.463v3.415h6.774c-1.447,1.864-4.306,2.561-6.774,2.561V68.5c4.475,0,8.942-3.011,10.992-4.757V68.5h4.7V63.272c1.707,1.6,6.616,5.229,11.525,5.229V64.019c-2.467,0-5.327-.7-6.774-2.561h6.532V58.043H460.151V56.549H470.4V54.414H460.151V51.96h10.778V49.825H465.7V47.157ZM461,49.825h-5.976V47.157H461Z" fill="#0b5398"/></g></svg>